<?xml version="1.0" encoding="UTF-8" standalone="no"?>
<svg
   xmlns:dc="http://purl.org/dc/elements/1.1/"
   xmlns:cc="http://creativecommons.org/ns#"
   xmlns:rdf="http://www.w3.org/1999/02/22-rdf-syntax-ns#"
   xmlns:svg="http://www.w3.org/2000/svg"
   xmlns="http://www.w3.org/2000/svg"
   xmlns:sodipodi="http://sodipodi.sourceforge.net/DTD/sodipodi-0.dtd"
   xmlns:inkscape="http://www.inkscape.org/namespaces/inkscape"
   version="1.1"
   id="svg2"
   xml:space="preserve"
   width="666.66669"
   height="666.66669"
   viewBox="0 0 666.66669 666.66669"
   sodipodi:docname="Coming Soon.ai"><metadata
     id="metadata8"><rdf:RDF><cc:Work
         rdf:about=""><dc:format>image/svg+xml</dc:format><dc:type
           rdf:resource="http://purl.org/dc/dcmitype/StillImage" /></cc:Work></rdf:RDF></metadata><defs
     id="defs6"><clipPath
       clipPathUnits="userSpaceOnUse"
       id="clipPath18"><path
         d="M 0,500 H 500 V 0 H 0 Z"
         id="path16" /></clipPath><clipPath
       clipPathUnits="userSpaceOnUse"
       id="clipPath26"><path
         d="M 58.1324,440.055 H 463.197 V 81.6258 H 58.1324 Z"
         id="path24" /></clipPath><clipPath
       clipPathUnits="userSpaceOnUse"
       id="clipPath122"><path
         d="M 0,500 H 500 V 0 H 0 Z"
         id="path120" /></clipPath></defs><sodipodi:namedview
     pagecolor="#ffffff"
     bordercolor="#666666"
     borderopacity="1"
     objecttolerance="10"
     gridtolerance="10"
     guidetolerance="10"
     inkscape:pageopacity="0"
     inkscape:pageshadow="2"
     inkscape:window-width="640"
     inkscape:window-height="480"
     id="namedview4" /><g
     id="g10"
     inkscape:groupmode="layer"
     inkscape:label="Coming Soon"
     transform="matrix(1.3333333,0,0,-1.3333333,0,666.66667)"><g
       id="g12"><g
         id="g14"
         clip-path="url(#clipPath18)"><g
           id="g20"><g
             id="g22" /><g
             id="g34"><g
               clip-path="url(#clipPath26)"
               opacity="0.190002"
               id="g32"><g
                 transform="translate(96.2935,348.564)"
                 id="g30"><path
                   d="m 0,0 c 0,0 144.415,128.92 210.496,80.69 66.081,-48.23 11.853,-99.935 40.57,-100.927 28.716,-0.992 86.441,51.634 111.822,-4.967 25.38,-56.601 -78.582,-124.831 -60.038,-127.734 18.543,-2.903 49.752,7.326 49.752,-13.941 0,-21.269 -88.491,-105.585 -148.274,-99.773 -59.783,5.814 26.529,63.414 -8.453,58.171 -34.982,-5.243 -94.742,-86.227 -142.14,-36.985 -47.398,49.241 41.761,140.077 2.217,127.276 C -9.122,-139.255 -85.802,-83.236 0,0"
                   style="fill:#3c81cc;fill-opacity:1;fill-rule:nonzero;stroke:none"
                   id="path28" /></g></g></g></g><g
           id="g36"
           transform="translate(279.5215,346.2017)"><path
             d="m 0,0 c 9.587,5.943 5.043,20.479 -4.236,25.618 -9.28,5.139 -4.706,7.127 -4.284,18.844 0.714,19.795 -11.278,20.557 -11.278,20.557 0,0 -11.278,0.647 -11.278,-20.557 0,-11.725 4.997,-13.705 -4.282,-18.844 C -44.638,20.479 -49.182,5.943 -39.595,0 c 11.551,-7.16 -12.884,-10.74 -8.734,-30.841 2.818,-13.642 17.682,-13.381 28.531,-13.642 10.85,0.261 25.714,0 28.531,13.642 C 12.884,-10.74 -11.552,-7.16 0,0"
             style="fill:#89991d;fill-opacity:1;fill-rule:nonzero;stroke:none"
             id="path38" /></g><g
           id="g40"
           transform="translate(259.3965,305.9331)"><path
             d="M 0,0 C 0.251,0.879 1.367,63.256 0,74.855 -0.494,79.049 -2.117,-7.422 0,0"
             style="fill:#ffffff;fill-opacity:1;fill-rule:nonzero;stroke:none"
             id="path42" /></g><g
           id="g44"
           transform="translate(246.9116,365.835)"><path
             d="M 0,0 C 0,0 10.585,-15.966 12.289,-15.592 13.992,-15.217 25.321,-0.48 24.158,0.333 23.77,0.604 12.107,-13.911 12.107,-13.911 12.107,-13.911 -0.728,2.883 0,0"
             style="fill:#ffffff;fill-opacity:1;fill-rule:nonzero;stroke:none"
             id="path46" /></g><g
           id="g48"
           transform="translate(246.9116,350.9941)"><path
             d="M 0,0 C 0,0 10.585,-15.966 12.289,-15.592 13.992,-15.217 25.321,-0.48 24.158,0.333 23.77,0.604 12.107,-13.911 12.107,-13.911 12.107,-13.911 -0.728,2.883 0,0"
             style="fill:#ffffff;fill-opacity:1;fill-rule:nonzero;stroke:none"
             id="path50" /></g><g
           id="g52"
           transform="translate(246.9116,332.2266)"><path
             d="M 0,0 C 0,0 10.585,-15.966 12.289,-15.592 13.992,-15.217 25.321,-0.48 24.158,0.333 23.77,0.604 12.107,-13.911 12.107,-13.911 12.107,-13.911 -0.728,2.883 0,0"
             style="fill:#ffffff;fill-opacity:1;fill-rule:nonzero;stroke:none"
             id="path54" /></g><g
           id="g56"
           transform="translate(334.752,202.5039)"><path
             d="M 0,0 C -0.71,0 -1.414,0.025 -2.114,0.065 -0.743,5.684 0,11.55 0,17.591 v 55.742 c 20.218,0 36.667,-16.449 36.667,-36.666 C 36.667,16.449 20.218,0 0,0 m -147.146,0 c -20.217,0 -36.667,16.449 -36.667,36.667 0,20.217 16.45,36.666 36.667,36.666 V 23.39 c -0.149,-1.916 -0.248,-3.845 -0.248,-5.799 0,-6.048 0.744,-11.919 2.118,-17.544 C -145.895,0.016 -146.519,0 -147.146,0 M 0,89.333 v 23.904 H -147.146 V 89.333 c -29.041,0 -52.667,-23.626 -52.667,-52.666 0,-29.041 23.626,-52.667 52.667,-52.667 2.573,0 5.101,0.194 7.576,0.553 10.431,-20.757 30.369,-35.905 54.11,-39.714 v -59.168 h -20.55 c -10.629,0 -19.245,-8.616 -19.245,-19.245 h 39.795 v -0.452 h 23.527 v 0.452 h 39.794 c 0,10.629 -8.616,19.245 -19.245,19.245 h -20.549 v 59.168 c 23.751,3.811 43.698,18.972 54.124,39.743 C -5.26,-15.799 -2.653,-16 0,-16 29.041,-16 52.667,7.626 52.667,36.667 52.667,65.707 29.041,89.333 0,89.333"
             style="fill:#e59d35;fill-opacity:1;fill-rule:nonzero;stroke:none"
             id="path58" /></g><g
           id="g60"
           transform="translate(187.6064,202.5039)"><path
             d="m 0,0 c -20.218,0 -36.667,16.449 -36.667,36.667 0,20.217 16.449,36.666 36.667,36.666 V 23.39 C -0.149,21.474 -0.249,19.545 -0.249,17.591 -0.249,11.543 0.496,5.672 1.87,0.047 1.25,0.016 0.627,0 0,0 m 23.278,66.368 c 0,17.023 4.437,33.007 12.207,46.869 H 0 V 89.333 c -29.041,0 -52.667,-23.626 -52.667,-52.666 C -52.667,7.626 -29.041,-16 0,-16 c 2.573,0 5.101,0.194 7.576,0.553 10.431,-20.757 30.369,-35.905 54.109,-39.714 v -59.168 H 41.136 c -10.63,0 -19.246,-8.616 -19.246,-19.245 h 39.795 v -0.452 h 23.528 v 0.452 h 39.794 c 0,10.629 -8.616,19.245 -19.245,19.245 H 85.213 v 59.168 c 18.206,2.922 34.171,12.516 45.332,26.191 -3.696,-0.432 -7.455,-0.661 -11.268,-0.661 -53.018,0 -95.999,42.98 -95.999,95.999"
             style="fill:#c9801f;fill-opacity:1;fill-rule:nonzero;stroke:none"
             id="path62" /></g><g
           id="g64"
           transform="translate(177.6431,298.2744)"><path
             d="m 0,0 -28.908,-39.092 c -5.642,-7.631 -0.195,-18.433 9.295,-18.433 h 57.815 c 9.49,0 14.937,10.802 9.295,18.433 L 18.589,0 C 13.968,6.249 4.621,6.249 0,0"
             style="fill:#fffaef;fill-opacity:1;fill-rule:nonzero;stroke:none"
             id="path66" /></g><path
           d="M 194.965,353.912 H 178.91 v -72.947 h 16.055 z"
           style="fill:#fffaef;fill-opacity:1;fill-rule:nonzero;stroke:none"
           id="path68" /><g
           id="g70"
           transform="translate(194.1987,355.8579)"><path
             d="m 0,0 h -14.522 c -2.687,0 -4.885,-2.198 -4.885,-4.885 0,-2.687 2.198,-4.886 4.885,-4.886 H 0 c 2.687,0 4.885,2.199 4.885,4.886 C 4.885,-2.198 2.687,0 0,0"
             style="fill:#fffaef;fill-opacity:1;fill-rule:nonzero;stroke:none"
             id="path72" /></g><g
           id="g74"
           transform="translate(215.4785,259.8188)"><path
             d="M 0,0 -12.039,16.28 H -45.043 L -57.082,0 c -4.215,-5.701 -0.146,-13.771 6.944,-13.771 H -6.944 C 0.146,-13.771 4.215,-5.701 0,0"
             style="fill:#605575;fill-opacity:1;fill-rule:nonzero;stroke:none"
             id="path76" /></g><g
           id="g78"
           transform="translate(86.8398,180.4892)"><path
             d="m 0,0 c 9.587,5.942 5.042,20.479 -4.237,25.617 -9.279,5.14 -4.705,7.127 -4.283,18.845 0.714,19.795 -11.278,20.557 -11.278,20.557 0,0 -11.278,0.646 -11.278,-20.557 0,-11.725 4.996,-13.705 -4.283,-18.845 C -44.638,20.479 -49.183,5.942 -39.596,0 c 11.552,-7.161 -12.883,-10.74 -8.733,-30.841 2.817,-13.643 17.682,-13.382 28.531,-13.643 10.85,0.261 25.714,0 28.531,13.643 C 12.883,-10.74 -11.551,-7.161 0,0"
             style="fill:#89991d;fill-opacity:1;fill-rule:nonzero;stroke:none"
             id="path80" /></g><g
           id="g82"
           transform="translate(66.7153,140.2207)"><path
             d="M 0,0 C 0.25,0.879 1.367,63.256 0,74.855 -0.495,79.049 -2.118,-7.423 0,0"
             style="fill:#ffffff;fill-opacity:1;fill-rule:nonzero;stroke:none"
             id="path84" /></g><g
           id="g86"
           transform="translate(54.2295,200.1221)"><path
             d="M 0,0 C 0,0 10.585,-15.967 12.289,-15.592 13.992,-15.218 25.321,-0.48 24.158,0.333 23.77,0.604 12.107,-13.911 12.107,-13.911 12.107,-13.911 -0.728,2.883 0,0"
             style="fill:#ffffff;fill-opacity:1;fill-rule:nonzero;stroke:none"
             id="path88" /></g><g
           id="g90"
           transform="translate(54.2295,185.2812)"><path
             d="M 0,0 C 0,0 10.585,-15.967 12.289,-15.592 13.992,-15.218 25.321,-0.48 24.158,0.333 23.77,0.604 12.107,-13.911 12.107,-13.911 12.107,-13.911 -0.728,2.884 0,0"
             style="fill:#ffffff;fill-opacity:1;fill-rule:nonzero;stroke:none"
             id="path92" /></g><g
           id="g94"
           transform="translate(54.2295,166.5137)"><path
             d="M 0,0 C 0,0 10.585,-15.967 12.289,-15.592 13.992,-15.218 25.321,-0.48 24.158,0.333 23.77,0.604 12.107,-13.911 12.107,-13.911 12.107,-13.911 -0.728,2.883 0,0"
             style="fill:#ffffff;fill-opacity:1;fill-rule:nonzero;stroke:none"
             id="path96" /></g><path
           d="M 229.388,68.484 H 79.777 v 171.724 h 149.611 z"
           style="fill:#fffaef;fill-opacity:1;fill-rule:nonzero;stroke:none"
           id="path98" /><path
           d="M 229.388,215.688 H 79.777 v 26.728 h 149.611 z"
           style="fill:#f05757;fill-opacity:1;fill-rule:nonzero;stroke:none"
           id="path100" /><path
           d="M 229.388,204 H 79.777 v 11.396 h 149.611 z"
           style="fill:#d6ece1;fill-opacity:1;fill-rule:nonzero;stroke:none"
           id="path102" /><g
           id="g104"
           transform="translate(209.9214,225.6387)"><path
             d="m 0,0 v 0 c -3.174,0 -5.771,2.598 -5.771,5.771 v 15.873 c 0,3.174 2.597,5.771 5.771,5.771 3.175,0 5.772,-2.597 5.772,-5.771 V 5.771 C 5.772,2.598 3.175,0 0,0"
             style="fill:#383a45;fill-opacity:1;fill-rule:nonzero;stroke:none"
             id="path106" /></g><g
           id="g108"
           transform="translate(99.2432,225.6387)"><path
             d="m 0,0 v 0 c -3.175,0 -5.772,2.598 -5.772,5.771 v 15.873 c 0,3.174 2.597,5.771 5.772,5.771 3.174,0 5.771,-2.597 5.771,-5.771 V 5.771 C 5.771,2.598 3.174,0 0,0"
             style="fill:#383a45;fill-opacity:1;fill-rule:nonzero;stroke:none"
             id="path110" /></g></g></g><text
       transform="matrix(1,0,0,-1,93.4712,102.5518)"
       style="font-variant:normal;font-weight:800;font-stretch:normal;font-size:114.081px;font-family:'Myriad Pro';-inkscape-font-specification:Gilroy-ExtraBold;writing-mode:lr-tb;fill:#383a45;fill-opacity:1;fill-rule:nonzero;stroke:none"
       id="text114"><tspan
         x="0 58.523449"
         y="0"
         sodipodi:role="line"
         id="tspan112">25</tspan></text><g
       id="g116"><g
         id="g118"
         clip-path="url(#clipPath122)"><path
           d="M 234.303,115.167 H 393.97 V 68.478 H 234.303 Z"
           style="fill:#3c81cc;fill-opacity:1;fill-rule:nonzero;stroke:none"
           id="path124" /><path
           d="m 382.727,115.167 h 2.234 V 95.636 h -2.234 z"
           style="fill:#ffffff;fill-opacity:1;fill-rule:nonzero;stroke:none"
           id="path126" /><path
           d="m 365.93,115.167 h 2.233 V 95.636 h -2.233 z"
           style="fill:#ffffff;fill-opacity:1;fill-rule:nonzero;stroke:none"
           id="path128" /><path
           d="m 388.334,115.167 h 2.234 v -9.58 h -2.234 z"
           style="fill:#ffffff;fill-opacity:1;fill-rule:nonzero;stroke:none"
           id="path130" /><path
           d="m 377.395,115.167 h 2.233 v -9.58 h -2.233 z"
           style="fill:#ffffff;fill-opacity:1;fill-rule:nonzero;stroke:none"
           id="path132" /><path
           d="m 371.728,115.167 h 2.233 v -9.58 h -2.233 z"
           style="fill:#ffffff;fill-opacity:1;fill-rule:nonzero;stroke:none"
           id="path134" /><path
           d="m 348.527,115.167 h 2.233 V 95.636 h -2.233 z"
           style="fill:#ffffff;fill-opacity:1;fill-rule:nonzero;stroke:none"
           id="path136" /><path
           d="m 359.992,115.167 h 2.233 v -9.58 h -2.233 z"
           style="fill:#ffffff;fill-opacity:1;fill-rule:nonzero;stroke:none"
           id="path138" /><path
           d="m 354.325,115.167 h 2.233 v -9.58 h -2.233 z"
           style="fill:#ffffff;fill-opacity:1;fill-rule:nonzero;stroke:none"
           id="path140" /><path
           d="m 330.803,115.167 h 2.234 V 95.636 h -2.234 z"
           style="fill:#ffffff;fill-opacity:1;fill-rule:nonzero;stroke:none"
           id="path142" /><path
           d="m 342.269,115.167 h 2.233 v -9.58 h -2.233 z"
           style="fill:#ffffff;fill-opacity:1;fill-rule:nonzero;stroke:none"
           id="path144" /><path
           d="m 336.601,115.167 h 2.233 v -9.58 h -2.233 z"
           style="fill:#ffffff;fill-opacity:1;fill-rule:nonzero;stroke:none"
           id="path146" /><path
           d="m 313.401,115.167 h 2.233 V 95.636 h -2.233 z"
           style="fill:#ffffff;fill-opacity:1;fill-rule:nonzero;stroke:none"
           id="path148" /><path
           d="m 324.866,115.167 h 2.233 v -9.58 h -2.233 z"
           style="fill:#ffffff;fill-opacity:1;fill-rule:nonzero;stroke:none"
           id="path150" /><path
           d="m 319.198,115.167 h 2.234 v -9.58 h -2.234 z"
           style="fill:#ffffff;fill-opacity:1;fill-rule:nonzero;stroke:none"
           id="path152" /><path
           d="m 295.019,115.167 h 2.233 V 95.636 h -2.233 z"
           style="fill:#ffffff;fill-opacity:1;fill-rule:nonzero;stroke:none"
           id="path154" /><path
           d="m 306.483,115.167 h 2.234 v -9.58 h -2.234 z"
           style="fill:#ffffff;fill-opacity:1;fill-rule:nonzero;stroke:none"
           id="path156" /><path
           d="m 300.816,115.167 h 2.233 v -9.58 h -2.233 z"
           style="fill:#ffffff;fill-opacity:1;fill-rule:nonzero;stroke:none"
           id="path158" /><path
           d="m 277.616,115.167 h 2.234 V 95.636 h -2.234 z"
           style="fill:#ffffff;fill-opacity:1;fill-rule:nonzero;stroke:none"
           id="path160" /><path
           d="m 289.082,115.167 h 2.233 v -9.58 h -2.233 z"
           style="fill:#ffffff;fill-opacity:1;fill-rule:nonzero;stroke:none"
           id="path162" /><path
           d="m 283.414,115.167 h 2.233 v -9.58 h -2.233 z"
           style="fill:#ffffff;fill-opacity:1;fill-rule:nonzero;stroke:none"
           id="path164" /><path
           d="m 259.724,115.167 h 2.233 V 95.636 h -2.233 z"
           style="fill:#ffffff;fill-opacity:1;fill-rule:nonzero;stroke:none"
           id="path166" /><path
           d="m 271.188,115.167 h 2.234 v -9.58 h -2.234 z"
           style="fill:#ffffff;fill-opacity:1;fill-rule:nonzero;stroke:none"
           id="path168" /><path
           d="m 265.521,115.167 h 2.233 v -9.58 h -2.233 z"
           style="fill:#ffffff;fill-opacity:1;fill-rule:nonzero;stroke:none"
           id="path170" /><path
           d="m 242.322,115.167 h 2.233 V 95.636 h -2.233 z"
           style="fill:#ffffff;fill-opacity:1;fill-rule:nonzero;stroke:none"
           id="path172" /><path
           d="m 253.787,115.167 h 2.233 v -9.58 h -2.233 z"
           style="fill:#ffffff;fill-opacity:1;fill-rule:nonzero;stroke:none"
           id="path174" /><path
           d="m 248.119,115.167 h 2.233 v -9.58 h -2.233 z"
           style="fill:#ffffff;fill-opacity:1;fill-rule:nonzero;stroke:none"
           id="path176" /><g
           id="g178"
           transform="translate(445.7441,190.2666)"><path
             d="m 0,0 c 9.587,5.942 5.042,20.479 -4.236,25.618 -9.28,5.139 -4.706,7.127 -4.284,18.844 0.713,19.795 -11.278,20.557 -11.278,20.557 0,0 -11.277,0.647 -11.277,-20.557 0,-11.725 4.996,-13.705 -4.283,-18.844 C -44.638,20.479 -49.183,5.942 -39.596,0 c 11.552,-7.16 -12.883,-10.74 -8.733,-30.841 2.817,-13.642 17.682,-13.381 28.531,-13.642 10.85,0.261 25.714,0 28.531,13.642 C 12.884,-10.74 -11.552,-7.16 0,0"
             style="fill:#89991d;fill-opacity:1;fill-rule:nonzero;stroke:none"
             id="path180" /></g><g
           id="g182"
           transform="translate(425.6191,149.998)"><path
             d="M 0,0 C 0.251,0.879 1.367,63.256 0,74.855 -0.494,79.049 -2.117,-7.422 0,0"
             style="fill:#ffffff;fill-opacity:1;fill-rule:nonzero;stroke:none"
             id="path184" /></g><g
           id="g186"
           transform="translate(413.1338,209.8994)"><path
             d="M 0,0 C 0,0 10.586,-15.966 12.289,-15.592 13.992,-15.217 25.321,-0.48 24.158,0.333 23.771,0.604 12.106,-13.91 12.106,-13.91 12.106,-13.91 -0.728,2.884 0,0"
             style="fill:#ffffff;fill-opacity:1;fill-rule:nonzero;stroke:none"
             id="path188" /></g><g
           id="g190"
           transform="translate(413.1338,195.0586)"><path
             d="M 0,0 C 0,0 10.586,-15.966 12.289,-15.592 13.992,-15.217 25.321,-0.48 24.158,0.333 23.771,0.605 12.106,-13.91 12.106,-13.91 12.106,-13.91 -0.728,2.884 0,0"
             style="fill:#ffffff;fill-opacity:1;fill-rule:nonzero;stroke:none"
             id="path192" /></g><g
           id="g194"
           transform="translate(413.1338,176.291)"><path
             d="M 0,0 C 0,0 10.586,-15.966 12.289,-15.592 13.992,-15.217 25.321,-0.48 24.158,0.333 23.771,0.604 12.106,-13.91 12.106,-13.91 12.106,-13.91 -0.728,2.884 0,0"
             style="fill:#ffffff;fill-opacity:1;fill-rule:nonzero;stroke:none"
             id="path196" /></g><g
           id="g198"
           transform="translate(368.6553,177.2695)"><path
             d="m 0,0 h -15.699 c -2.688,0 -4.886,-2.199 -4.886,-4.886 0,-2.078 1.315,-3.858 3.153,-4.561 v -66.149 c 0,-5.292 4.29,-9.581 9.582,-9.581 5.292,0 9.582,4.289 9.582,9.581 v 66.149 c 1.837,0.703 3.154,2.483 3.154,4.561 C 4.886,-2.199 2.688,0 0,0"
             style="fill:#fffaef;fill-opacity:1;fill-rule:nonzero;stroke:none"
             id="path200" /></g><g
           id="g202"
           transform="translate(360.8057,95.3477)"><path
             d="m 0,0 v 0 c -3.911,0 -7.112,3.2 -7.112,7.111 v 31.803 c 0,3.911 3.201,7.111 7.112,7.111 3.911,0 7.111,-3.2 7.111,-7.111 V 7.111 C 7.111,3.2 3.911,0 0,0"
             style="fill:#f05757;fill-opacity:1;fill-rule:nonzero;stroke:none"
             id="path204" /></g><path
           d="m 367.917,158.77 h -14.224 v -24.089 h 14.224 z"
           style="fill:#f05757;fill-opacity:1;fill-rule:nonzero;stroke:none"
           id="path206" /><g
           id="g208"
           transform="translate(397.5225,177.2695)"><path
             d="m 0,0 h -15.699 c -2.688,0 -4.886,-2.199 -4.886,-4.886 0,-2.078 1.315,-3.858 3.153,-4.561 v -66.149 c 0,-5.292 4.29,-9.581 9.582,-9.581 5.292,0 9.582,4.289 9.582,9.581 v 66.149 c 1.837,0.703 3.154,2.483 3.154,4.561 C 4.886,-2.199 2.688,0 0,0"
             style="fill:#fffaef;fill-opacity:1;fill-rule:nonzero;stroke:none"
             id="path210" /></g><g
           id="g212"
           transform="translate(389.6729,95.3477)"><path
             d="m 0,0 v 0 c -3.911,0 -7.112,3.2 -7.112,7.111 v 11.021 c 0,3.911 3.201,7.111 7.112,7.111 3.911,0 7.111,-3.2 7.111,-7.111 V 7.111 C 7.111,3.2 3.911,0 0,0"
             style="fill:#89991d;fill-opacity:1;fill-rule:nonzero;stroke:none"
             id="path214" /></g><path
           d="M 396.784,128.768 H 382.56 v -24.09 h 14.224 z"
           style="fill:#89991d;fill-opacity:1;fill-rule:nonzero;stroke:none"
           id="path216" /><g
           id="g218"
           transform="translate(426.6846,177.2695)"><path
             d="m 0,0 h -15.7 c -2.687,0 -4.886,-2.199 -4.886,-4.886 0,-2.078 1.316,-3.858 3.154,-4.561 v -66.149 c 0,-5.292 4.29,-9.581 9.582,-9.581 5.291,0 9.581,4.289 9.581,9.581 v 66.149 c 1.838,0.703 3.155,2.483 3.155,4.561 C 4.886,-2.199 2.687,0 0,0"
             style="fill:#fffaef;fill-opacity:1;fill-rule:nonzero;stroke:none"
             id="path220" /></g><g
           id="g222"
           transform="translate(418.835,95.3477)"><path
             d="m 0,0 v 0 c -3.912,0 -7.112,3.2 -7.112,7.111 v 11.021 c 0,3.911 3.2,7.111 7.112,7.111 3.911,0 7.111,-3.2 7.111,-7.111 V 7.111 C 7.111,3.2 3.911,0 0,0"
             style="fill:#e59d35;fill-opacity:1;fill-rule:nonzero;stroke:none"
             id="path224" /></g><path
           d="m 425.946,155.051 h -14.224 v -50.373 h 14.224 z"
           style="fill:#e59d35;fill-opacity:1;fill-rule:nonzero;stroke:none"
           id="path226" /><path
           d="M 342.51,172.204 H 324.009 V 69.205 h 18.501 z"
           style="fill:#605575;fill-opacity:1;fill-rule:nonzero;stroke:none"
           id="path228" /><path
           d="m 457.127,172.204 h -18.5 V 69.205 h 18.5 z"
           style="fill:#605575;fill-opacity:1;fill-rule:nonzero;stroke:none"
           id="path230" /><path
           d="M 453.827,149.336 H 332.582 v -18.5 h 121.245 z"
           style="fill:#605575;fill-opacity:1;fill-rule:nonzero;stroke:none"
           id="path232" /><g
           id="g234"
           transform="translate(456.709,79.3066)"><path
             d="m 0,0 h -17.664 c -2.905,0 -5.261,-4.849 -5.261,-10.829 H 5.26 C 5.26,-4.849 2.905,0 0,0"
             style="fill:#605575;fill-opacity:1;fill-rule:nonzero;stroke:none"
             id="path236" /></g><g
           id="g238"
           transform="translate(342.0918,79.3066)"><path
             d="m 0,0 h -17.664 c -2.905,0 -5.261,-4.849 -5.261,-10.829 H 5.26 C 5.26,-4.849 2.904,0 0,0"
             style="fill:#605575;fill-opacity:1;fill-rule:nonzero;stroke:none"
             id="path240" /></g><g
           id="g242"
           transform="translate(188.0879,107.1543)"><path
             d="m 0,0 h -131.93 c -10.011,0 -18.127,8.115 -18.127,18.127 0,10.012 8.116,18.127 18.127,18.127 H 0 Z"
             style="fill:#605575;fill-opacity:1;fill-rule:nonzero;stroke:none"
             id="path244" /></g><path
           d="M 188.044,113.293 H 51.274 v 23.977 h 136.77 z"
           style="fill:#fffaef;fill-opacity:1;fill-rule:nonzero;stroke:none"
           id="path246" /><path
           d="M 188.044,123.793 H 51.274 v 13.253 h 136.77 z"
           style="fill:#d6ece1;fill-opacity:1;fill-rule:nonzero;stroke:none"
           id="path248" /><g
           id="g250"
           transform="translate(240.7817,137.3183)"><path
             d="M 0,0 C 0,0 -0.459,1.947 -1.975,1.07 -3.491,0.194 -2.091,-2.321 -0.547,-2.915 0.997,-3.509 0,0 0,0"
             style="fill:#e57373;fill-opacity:1;fill-rule:nonzero;stroke:none"
             id="path252" /></g><g
           id="g254"
           transform="translate(251.414,137.623)"><path
             d="M 0,0 C 0,0 0.459,1.948 1.975,1.071 3.49,0.195 2.091,-2.32 0.546,-2.914 -0.998,-3.508 0,0 0,0"
             style="fill:#e57373;fill-opacity:1;fill-rule:nonzero;stroke:none"
             id="path256" /></g><g
           id="g258"
           transform="translate(251.8623,143.0605)"><path
             d="m 0,0 c 0.214,-0.75 -0.42,-12.112 -5.171,-13.287 -4.752,-1.175 -6.741,7.689 -6.41,12.815 C -11.249,4.654 -1.787,6.253 0,0"
             style="fill:#e57373;fill-opacity:1;fill-rule:nonzero;stroke:none"
             id="path260" /></g><g
           id="g262"
           transform="translate(260.9922,64.2471)"><path
             d="M 0,0 4.903,-1.393 C 4.774,-2.21 2.851,-10.845 2.291,-10.85 c -0.559,-0.004 -0.346,6.946 -0.346,6.946 0,0 -2.124,0.302 -2.392,0.47 C -0.693,-3.279 0,0 0,0"
             style="fill:#383a45;fill-opacity:1;fill-rule:nonzero;stroke:none"
             id="path264" /></g><g
           id="g266"
           transform="translate(225.3921,63.0605)"><path
             d="m 0,0 -4.818,-1.665 c 0.175,-0.81 2.581,-9.322 3.14,-9.296 0.558,0.026 -0.046,6.953 -0.046,6.953 0,0 2.104,0.423 2.363,0.606 C 0.876,-3.234 0,0 0,0"
             style="fill:#383a45;fill-opacity:1;fill-rule:nonzero;stroke:none"
             id="path268" /></g><g
           id="g270"
           transform="translate(240.998,80.4766)"><path
             d="m 0,0 c 0,0 25.384,11.303 37.528,1.843 15.824,-12.326 -53.137,-23.497 -53.137,-23.497 l -1.853,4.067 c 0,0 46.785,17.994 39.454,15.144 C 14.661,-5.294 -8.552,-10.182 0,0"
             style="fill:#89991d;fill-opacity:1;fill-rule:nonzero;stroke:none"
             id="path272" /></g><g
           id="g274"
           transform="translate(247.813,82.6719)"><path
             d="m 0,0 c 0,0 -28.376,8.518 -40.594,-0.85 -12.218,-9.367 53.453,-24.357 53.453,-24.357 l 2.521,6.536 c 0,0 -46.014,17.006 -38.733,14.032 C -11.776,-9.367 8.552,-10.182 0,0"
             style="fill:#89991d;fill-opacity:1;fill-rule:nonzero;stroke:none"
             id="path276" /></g><g
           id="g278"
           transform="translate(236.0366,114.8633)"><path
             d="m 0,0 c 0,0 -21.422,-11.529 -17.554,-20.285 3.869,-8.757 13.509,-13.759 14.731,-15.591 1.221,-1.833 1.853,-4.67 1.853,-4.67 0,0 -0.957,1.004 -4.256,2.023 -3.299,1.018 -19.202,9.532 -19.202,20.5 0,10.967 17.776,25.163 20.994,26.904 C -0.216,10.623 0,0 0,0"
             style="fill:#e57373;fill-opacity:1;fill-rule:nonzero;stroke:none"
             id="path280" /></g><g
           id="g282"
           transform="translate(257.0303,115.2334)"><path
             d="M 0,0 C 0,0 18.615,-13.818 14.746,-22.574 10.877,-31.33 3.075,-34.414 1.854,-36.246 0.632,-38.079 0,-40.916 0,-40.916 c 0,0 0.958,1.004 4.257,2.022 3.299,1.019 17.867,9.206 17.867,20.172 C 22.124,-7.754 5.683,6.77 2.465,8.511 -0.754,10.253 0,0 0,0"
             style="fill:#e57373;fill-opacity:1;fill-rule:nonzero;stroke:none"
             id="path284" /></g><g
           id="g286"
           transform="translate(229.0244,78.4111)"><path
             d="m 0,0 h 31.196 c 0,0 1.878,44.484 -0.563,45.815 -8.012,4.37 -27.018,1.998 -27.98,0 C 1.69,43.816 0,0 0,0"
             style="fill:#605575;fill-opacity:1;fill-rule:nonzero;stroke:none"
             id="path288" /></g><g
           id="g290"
           transform="translate(228.957,92.1201)"><path
             d="m 0,0 c 0,0 -1.164,-21.508 0,-21.937 1.164,-0.43 30.013,-0.401 31.07,0 C 32.129,-21.536 31.834,0 31.834,0 31.834,0 8.677,1.212 0,0"
             style="fill:#d6ece1;fill-opacity:1;fill-rule:nonzero;stroke:none"
             id="path292" /></g><g
           id="g294"
           transform="translate(228.957,71.7168)"><path
             d="m 0,0 c 0,0 -1.164,-2.532 0,-2.583 1.164,-0.051 30.013,-0.048 31.07,0 C 32.129,-2.536 31.834,0 31.834,0 31.834,0 8.677,0.143 0,0"
             style="fill:#9bd5ca;fill-opacity:1;fill-rule:nonzero;stroke:none"
             id="path296" /></g><g
           id="g298"
           transform="translate(248.9092,135.1064)"><path
             d="m 0,0 c 0,0 1.487,-8.45 0.93,-9.366 -0.558,-0.917 -2.065,-2.852 -3.45,-2.852 -1.386,0 -2.945,2.848 -3.049,3.308 -0.103,0.46 0,10.234 0,10.234 0,0 3.988,1.935 5.569,-1.324"
             style="fill:#e57373;fill-opacity:1;fill-rule:nonzero;stroke:none"
             id="path300" /></g><g
           id="g302"
           transform="translate(241.4736,145.7461)"><path
             d="M 0,0 C 0,0 0.938,4.121 3.494,3.714 6.049,3.307 9.873,4.006 11.095,2.663 12.316,1.321 12.858,-1.608 10.21,-2.153 7.561,-2.697 1.383,0.41 0.608,-2.064 c -2.009,-6.415 0.755,-9.499 0.755,-9.499 1.587,-0.407 6.109,-0.074 7.127,0.516 1.934,1.12 -0.012,9.979 0.904,9.876 0.917,-0.101 1.628,-0.532 1.527,-2.761 C 10.819,-6.159 10.304,-16.366 8.37,-17.15 7.06,-17.682 2.267,-17.466 1.503,-16.775 0.032,-15.446 -2.824,-5.345 -2.009,-2.901 -1.195,-0.458 -1.18,-0.093 0,0"
             style="fill:#383a45;fill-opacity:1;fill-rule:nonzero;stroke:none"
             id="path304" /></g><g
           id="g306"
           transform="translate(235.1435,113.1357)"><path
             d="m 0,0 c 0,0 -7.533,-6.364 -8.915,-7.537 -1.381,-1.173 -7.746,5.48 -7.746,6.677 0,1.195 12.198,11.356 13.195,11.951 C -2.47,11.686 0.75,5.359 0,0"
             style="fill:#605575;fill-opacity:1;fill-rule:nonzero;stroke:none"
             id="path308" /></g><g
           id="g310"
           transform="translate(256.1904,113.1357)"><path
             d="m 0,0 c 0,0 7.533,-6.364 8.915,-7.537 1.382,-1.173 7.746,5.48 7.746,6.677 0,1.195 -12.197,11.356 -13.194,11.951 C 2.471,11.686 -0.749,5.359 0,0"
             style="fill:#605575;fill-opacity:1;fill-rule:nonzero;stroke:none"
             id="path312" /></g><g
           id="g314"
           transform="translate(125.0879,324.6772)"><path
             d="M 0,0 C 0,0 -20.319,-9.792 -36.75,-3 -53.079,3.75 -55,3.679 -57.5,2.59 c -2.5,-1.09 3.705,5.91 16.25,0 3.835,-1.808 24.091,-1.84 39.806,9.018 0,0 5.128,-8.615 1.444,-11.608"
             style="fill:#e57373;fill-opacity:1;fill-rule:nonzero;stroke:none"
             id="path316" /></g><g
           id="g318"
           transform="translate(162.1733,380.9365)"><path
             d="M 0,0 C 0,0 2.767,1.781 4.758,1.378 6.75,0.976 7.083,3.226 7.083,3.226 7.083,3.226 7.517,0.774 4.758,0 2,-0.774 -0.25,-0.299 0,-5.912 c 0.25,-5.612 12.526,-38.611 -13.739,-45.883 0,0 -5.011,9.072 -4.261,11.296 0.75,2.225 12.281,8.059 12.516,17.767 C -5.25,-13.024 -4.759,-1.378 0,0"
             style="fill:#e57373;fill-opacity:1;fill-rule:nonzero;stroke:none"
             id="path320" /></g><g
           id="g322"
           transform="translate(117.8853,299.7163)"><path
             d="m 0,0 c 0,0 -5.32,-13.265 -19.378,-14.844 -14.059,-1.58 -24.955,13.384 -24.955,13.384 l -5.174,-3.265 c 0,0 6.922,-17.874 25.411,-21.871 18.491,-3.997 31.469,9.961 31.469,9.961 0,0 3.898,-2.095 2.4,-18.069 C 7.895,-54.75 6.021,-66.315 6.021,-66.315 h 6.183 c 0,0 8.867,21.236 10.35,36.452 1.727,17.718 -1.275,26.77 -1.275,26.77 z"
             style="fill:#383a45;fill-opacity:1;fill-rule:nonzero;stroke:none"
             id="path324" /></g><g
           id="g326"
           transform="translate(73.4307,296.8994)"><path
             d="m 0,0 -3.112,3.608 c -0.642,-0.432 -7.204,-5.464 -6.988,-5.941 0.217,-0.476 6.024,2.444 6.024,2.444 0,0 1.094,-1.681 1.342,-1.843 C -2.506,-1.88 0,0 0,0"
             style="fill:#383a45;fill-opacity:1;fill-rule:nonzero;stroke:none"
             id="path328" /></g><g
           id="g330"
           transform="translate(125.3154,234.2803)"><path
             d="m 0,0 0.402,-4.748 c 0.773,-0.027 9.04,0.196 9.144,0.709 0.104,0.513 -6.311,1.557 -6.311,1.557 0,0 0.101,2.003 -0.005,2.28 C 3.132,0.051 0,0 0,0"
             style="fill:#383a45;fill-opacity:1;fill-rule:nonzero;stroke:none"
             id="path332" /></g><g
           id="g334"
           transform="translate(114.79,294.5142)"><path
             d="m 0,0 c 0,0 8.109,20.892 8.255,37.252 0.107,12 24.366,9.635 25.202,4.3 1.864,-11.899 -6.909,-51.011 -6.909,-51.011 z"
             style="fill:#3c81cc;fill-opacity:1;fill-rule:nonzero;stroke:none"
             id="path336" /></g><g
           id="g338"
           transform="translate(139.9126,340.1094)"><path
             d="m 0,0 c 0,0 9.759,5.668 10.234,5.954 0.474,0.285 10.469,-9.779 10.469,-9.779 0,0 -9.068,-9.353 -13.922,-9.773 C 1.928,-14.019 -2.418,-0.354 0,0"
             style="fill:#3c81cc;fill-opacity:1;fill-rule:nonzero;stroke:none"
             id="path340" /></g><g
           id="g342"
           transform="translate(108.4731,330.5723)"><path
             d="m 0,0 c 0,0 0.836,-10.492 1.672,-11.039 0.836,-0.547 15.528,2.797 16.722,4.111 1.194,1.314 2.827,15.529 2.047,15.157 C 19.661,7.858 1.195,0.597 0,0"
             style="fill:#3c81cc;fill-opacity:1;fill-rule:nonzero;stroke:none"
             id="path344" /></g><g
           id="g346"
           transform="translate(135.5259,351.0747)"><path
             d="M 0,0 C 0,0 -0.098,2.856 -1.428,2.585 -2.757,2.314 -3.717,-0.492 -3.003,-1.526 -2.29,-2.56 0.025,-2.388 0,0"
             style="fill:#e57373;fill-opacity:1;fill-rule:nonzero;stroke:none"
             id="path348" /></g><g
           id="g350"
           transform="translate(144.3755,354.3789)"><path
             d="m 0,0 c 0,0 2.749,-7.897 -2.009,-9.229 -4.759,-1.333 -3.892,3.709 -3.701,2.757 0.19,-0.951 1.401,-8.794 1.401,-8.794 0,0 -2.41,-3.072 -6.953,-0.413 -0.723,0.424 1.936,12.665 2.487,18.88 0.24,2.715 7.06,0 8.775,-3.201"
             style="fill:#e57373;fill-opacity:1;fill-rule:nonzero;stroke:none"
             id="path352" /></g><g
           id="g354"
           transform="translate(136.0625,360.019)"><path
             d="M 0,0 C 0,0 1.073,3.697 3.355,2.832 5.636,1.967 5.322,0.708 6.974,1.416 8.626,2.124 10.318,-0.472 9.443,-2.125 8.296,-4.29 8.312,-4.957 5.165,-4.249 c -3.147,0.708 -4.8,1.81 -5.508,0.551 -0.708,-1.259 0.551,-4.485 -0.393,-4.878 -0.944,-0.393 -0.866,2.124 -1.574,1.18 -0.708,-0.944 -1.809,-3.356 0.079,-3.055 1.888,0.302 0.493,-2.218 -0.226,-2.138 -0.718,0.08 -4.002,2.769 -3.629,6.374 0.236,2.281 2.632,1.101 1.967,2.753 C -4.785,-1.81 -3.276,1.73 0,0"
             style="fill:#383a45;fill-opacity:1;fill-rule:nonzero;stroke:none"
             id="path356" /></g><g
           id="g358"
           transform="translate(188.435,70.9961)"><path
             d="m 0,0 h -131.93 c -10.011,0 -18.127,8.116 -18.127,18.127 0,10.012 8.116,18.127 18.127,18.127 H 0 Z"
             style="fill:#e59d35;fill-opacity:1;fill-rule:nonzero;stroke:none"
             id="path360" /></g><g
           id="g362"
           transform="translate(188.0879,107.1543)"><path
             d="m 0,0 h -132.152 c -9.697,0 -17.558,-7.86 -17.558,-17.558 H 0 Z"
             style="fill:#c9801f;fill-opacity:1;fill-rule:nonzero;stroke:none"
             id="path364" /></g><path
           d="M 73.958,107.25 H 59.73 V 70.764 h 14.228 z"
           style="fill:#605575;fill-opacity:1;fill-rule:nonzero;stroke:none"
           id="path366" /><path
           d="M 179.14,107.25 H 164.912 V 70.764 h 14.228 z"
           style="fill:#605575;fill-opacity:1;fill-rule:nonzero;stroke:none"
           id="path368" /><path
           d="M 152.367,80.077 H 84.395 v 20.717 h 67.972 z"
           style="fill:#605575;fill-opacity:1;fill-rule:nonzero;stroke:none"
           id="path370" /><g
           id="g372"
           transform="translate(380.9209,256.915)"><path
             d="m 0,0 -13.778,9.171 c -3.933,2.617 -5.009,7.976 -2.391,11.909 L 0.209,45.685 c 2.617,3.933 7.976,5.008 11.908,2.391 l 13.779,-9.171 c 3.932,-2.617 5.008,-7.976 2.39,-11.908 L 11.908,2.391 C 9.291,-1.542 3.933,-2.618 0,0"
             style="fill:#89991d;fill-opacity:1;fill-rule:nonzero;stroke:none"
             id="path374" /></g><g
           id="g376"
           transform="translate(325.918,167.9306)"><path
             d="m 0,0 -18.738,12.473 c -2.569,1.709 -3.272,5.209 -1.562,7.777 l 19.68,29.566 c 1.709,2.569 5.209,3.271 7.777,1.562 L 25.896,38.905 c 2.568,-1.71 3.271,-5.21 1.561,-7.778 L 7.778,1.562 C 6.068,-1.007 2.568,-1.71 0,0"
             style="fill:#f05757;fill-opacity:1;fill-rule:nonzero;stroke:none"
             id="path378" /></g><path
           d="m 368.765,69.296 h -27.062 v 49.141 h 27.062 z"
           style="fill:#fffaef;fill-opacity:1;fill-rule:nonzero;stroke:none"
           id="path380" /><path
           d="m 368.765,95.881 h -27.062 v 18.142 h 27.062 z"
           style="fill:#383a45;fill-opacity:1;fill-rule:nonzero;stroke:none"
           id="path382" /><g
           id="g384"
           transform="translate(383.0518,85.0469)"><path
             d="m 0,0 h -55.638 c -9.15,0 -16.568,-7.419 -16.568,-16.569 H 16.569 C 16.569,-7.419 9.151,0 0,0"
             style="fill:#383a45;fill-opacity:1;fill-rule:nonzero;stroke:none"
             id="path386" /></g><g
           id="g388"
           transform="translate(351.6807,105.21)"><path
             d="m 0,0 c -23.729,0 -45.059,13.196 -55.665,34.437 -1.974,3.954 -0.369,8.758 3.583,10.732 3.951,1.976 8.757,0.369 10.731,-3.583 C -33.471,25.804 -17.626,16 0,16 c 25.467,0 46.186,20.719 46.186,46.186 0,25.467 -20.719,46.186 -46.186,46.186 -4.418,0 -8,3.582 -8,8 0,4.418 3.582,8 8,8 34.289,0 62.186,-27.896 62.186,-62.186 C 62.186,27.896 34.289,0 0,0"
             style="fill:#fffaef;fill-opacity:1;fill-rule:nonzero;stroke:none"
             id="path390" /></g><path
           d="m 349.457,152.331 h -85.654 v -13.156 h 85.654 z"
           style="fill:#383a45;fill-opacity:1;fill-rule:nonzero;stroke:none"
           id="path392" /><g
           id="g394"
           transform="translate(336.5273,174.5547)"><path
             d="m 0,0 -28.294,18.833 c -2.353,1.566 -2.997,4.774 -1.431,7.128 l 61.582,92.52 c 1.567,2.354 4.775,2.998 7.128,1.431 L 67.279,101.08 c 2.355,-1.567 2.998,-4.775 1.432,-7.129 L 7.129,1.432 C 5.562,-0.923 2.354,-1.566 0,0"
             style="fill:#383a45;fill-opacity:1;fill-rule:nonzero;stroke:none"
             id="path396" /></g><g
           id="g398"
           transform="translate(382.1641,220.8164)"><path
             d="m 0,0 c 0,-7.999 -6.484,-14.482 -14.482,-14.482 -7.998,0 -14.482,6.483 -14.482,14.482 0,7.998 6.484,14.481 14.482,14.481 C -6.484,14.481 0,7.998 0,0"
             style="fill:#89991d;fill-opacity:1;fill-rule:nonzero;stroke:none"
             id="path400" /></g><g
           id="g402"
           transform="translate(374.9229,221.3525)"><path
             d="m 0,0 c 0,-3.999 -3.242,-7.241 -7.241,-7.241 -3.999,0 -7.241,3.242 -7.241,7.241 0,3.999 3.242,7.24 7.241,7.24 C -3.242,7.24 0,3.999 0,0"
             style="fill:#383a45;fill-opacity:1;fill-rule:nonzero;stroke:none"
             id="path404" /></g><g
           id="g406"
           transform="translate(212.4433,376.0356)"><path
             d="m 0,0 c 0,-4.58 -3.713,-8.293 -8.293,-8.293 -4.581,0 -8.294,3.713 -8.294,8.293 0,4.58 3.713,8.293 8.294,8.293 C -3.713,8.293 0,4.58 0,0"
             style="fill:#605575;fill-opacity:1;fill-rule:nonzero;stroke:none"
             id="path408" /></g><g
           id="g410"
           transform="translate(226.0161,397.3809)"><path
             d="m 0,0 c 0,-5.767 -4.675,-10.441 -10.441,-10.441 -5.767,0 -10.442,4.674 -10.442,10.441 0,5.767 4.675,10.441 10.442,10.441 C -4.675,10.441 0,5.767 0,0"
             style="fill:#605575;fill-opacity:1;fill-rule:nonzero;stroke:none"
             id="path412" /></g><g
           id="g414"
           transform="translate(452.4531,233.4014)"><path
             d="m 0,0 c 0,-5.768 -4.675,-10.442 -10.441,-10.442 -5.767,0 -10.442,4.674 -10.442,10.442 0,5.767 4.675,10.441 10.442,10.441 C -4.675,10.441 0,5.767 0,0"
             style="fill:#605575;fill-opacity:1;fill-rule:nonzero;stroke:none"
             id="path416" /></g><g
           id="g418"
           transform="translate(381.8271,190.3408)"><path
             d="m 0,0 c 0,-4.79 -3.883,-8.673 -8.673,-8.673 -4.79,0 -8.673,3.883 -8.673,8.673 0,4.79 3.883,8.673 8.673,8.673 C -3.883,8.673 0,4.79 0,0"
             style="fill:#f05757;fill-opacity:1;fill-rule:nonzero;stroke:none"
             id="path420" /></g><g
           id="g422"
           transform="translate(412.1094,225.001)"><path
             d="m 0,0 c 0,-4.79 -3.883,-8.673 -8.673,-8.673 -4.79,0 -8.673,3.883 -8.673,8.673 0,4.79 3.883,8.673 8.673,8.673 C -3.883,8.673 0,4.79 0,0"
             style="fill:#e59d35;fill-opacity:1;fill-rule:nonzero;stroke:none"
             id="path424" /></g><g
           id="g426"
           transform="translate(176.4839,437.7656)"><path
             d="m 0,0 c 2.286,-12.875 -6.299,-25.165 -19.174,-27.451 -12.875,-2.285 -25.165,6.3 -27.451,19.175 -2.285,12.875 6.299,25.165 19.175,27.45 C -14.575,21.459 -2.286,12.875 0,0"
             style="fill:#e59d35;fill-opacity:1;fill-rule:nonzero;stroke:none"
             id="path428" /></g><g
           id="g430"
           transform="translate(159.3247,398.9644)"><path
             d="m 0,0 -6.153,34.663 -23.312,-4.138 c 0,0 1.896,-11.46 11.488,-17.233 7.184,-4.323 9.057,-14.875 9.057,-14.875 z"
             style="fill:#e59d35;fill-opacity:1;fill-rule:nonzero;stroke:none"
             id="path432" /></g><g
           id="g434"
           transform="translate(159.165,398.936)"><path
             d="m 0,0 -6.153,34.663 23.312,4.138 c 0,0 2.164,-11.412 -4.856,-20.134 C 7.047,12.136 8.92,1.583 8.92,1.583 Z"
             style="fill:#e59d35;fill-opacity:1;fill-rule:nonzero;stroke:none"
             id="path436" /></g><g
           id="g438"
           transform="translate(158.1294,423.6899)"><path
             d="M 0,0 C -0.013,-0.022 -0.092,-0.197 -0.018,-0.666 0.082,-1.297 0.365,-2.03 0.698,-2.692 0.774,-1.363 0.284,-0.088 0,0 m -2.876,-0.64 c -0.07,-0.251 -0.09,-0.799 0.16,-1.552 0.124,-0.376 0.307,-0.765 0.546,-1.11 0.01,1.157 -0.413,2.282 -0.706,2.662 m -2.668,-25.79 c -0.272,-0.048 -0.532,0.133 -0.58,0.405 l -4.37,24.618 c -0.043,0.24 0.094,0.476 0.323,0.558 0.23,0.079 0.485,-0.012 0.604,-0.223 1.489,-2.627 3.273,-4.903 3.824,-4.882 -0.011,0.008 0.123,0.144 0.22,0.688 -0.098,0.152 -0.189,0.318 -0.273,0.498 -0.653,1.386 -1,4.128 -0.167,4.638 0.229,0.141 0.504,0.122 0.719,-0.044 0.633,-0.491 0.934,-3.108 0.761,-4.825 0.355,-0.416 0.739,-0.531 1.219,-0.371 0.39,0.134 0.678,0.406 0.861,0.812 -0.679,0.637 -1.126,1.526 -1.347,2.329 -0.258,0.942 -0.292,2.111 0.39,2.564 0.269,0.177 0.588,0.177 0.879,0 0.821,-0.499 1.456,-2.563 1.282,-4.167 -0.013,-0.118 -0.03,-0.232 -0.051,-0.343 0.256,-0.144 0.542,-0.235 0.854,-0.251 0.302,-0.016 0.543,0.106 0.723,0.364 -0.756,1.203 -1.425,2.854 -1.373,3.867 0.039,0.744 0.442,1.019 0.678,1.117 0.404,0.165 0.829,0.06 1.17,-0.293 0.779,-0.806 1.197,-3.094 0.667,-4.613 0.179,-0.25 0.345,-0.44 0.473,-0.544 0.347,0.681 0.724,3.351 0.874,5.653 C 2.833,1.377 3.035,1.577 3.288,1.592 3.54,1.605 3.763,1.429 3.808,1.18 l 4.091,-23.052 c 0.049,-0.272 -0.132,-0.531 -0.404,-0.579 -0.273,-0.049 -0.532,0.133 -0.58,0.405 L 3.445,-2.501 C 3.227,-3.899 2.909,-5.124 2.45,-5.46 2.334,-5.546 2.018,-5.716 1.578,-5.479 c -0.198,0.107 -0.419,0.31 -0.649,0.581 -0.36,-0.37 -0.83,-0.554 -1.376,-0.526 -0.414,0.021 -0.79,0.125 -1.13,0.29 -0.302,-0.571 -0.765,-0.977 -1.363,-1.182 -0.65,-0.22 -1.256,-0.145 -1.78,0.202 -0.257,-0.65 -0.653,-0.818 -0.952,-0.837 -0.973,-0.066 -2.308,1.548 -3.378,3.135 l 3.911,-22.034 c 0.048,-0.272 -0.133,-0.531 -0.405,-0.58"
             style="fill:#fffaef;fill-opacity:1;fill-rule:nonzero;stroke:none"
             id="path440" /></g><g
           id="g442"
           transform="translate(171.041,435.5356)"><path
             d="m 0,0 c -0.054,-0.009 -0.109,-0.017 -0.165,-0.021 -1.094,-0.089 -2.087,0.855 -2.218,2.109 -1.069,10.259 -8.342,11.069 -8.651,11.098 -1.102,0.105 -1.963,1.205 -1.924,2.457 0.039,1.253 0.96,2.185 2.065,2.077 C -7.092,17.358 0.405,13.692 1.581,2.409 1.705,1.219 1.007,0.179 0,0"
             style="fill:#fffaef;fill-opacity:1;fill-rule:nonzero;stroke:none"
             id="path444" /></g><g
           id="g446"
           transform="translate(170.7558,388.0742)"><path
             d="m 0,0 -18.337,-3.255 -2.708,15.257 18.337,3.255 z"
             style="fill:#383a45;fill-opacity:1;fill-rule:nonzero;stroke:none"
             id="path448" /></g><g
           id="g450"
           transform="translate(166.7807,394.7217)"><path
             d="m 0,0 -13.325,-2.365 1.916,-10.791 13.325,2.365 z"
             style="fill:#383a45;fill-opacity:1;fill-rule:nonzero;stroke:none"
             id="path452" /></g><g
           id="g454"
           transform="translate(156.7329,452.8047)"><path
             d="m 0,0 c 0.211,-1.192 -0.583,-2.331 -1.776,-2.542 -1.192,-0.212 -2.33,0.584 -2.542,1.776 -0.212,1.192 0.583,2.33 1.776,2.542 C -1.35,1.988 -0.212,1.192 0,0"
             style="fill:#fffaef;fill-opacity:1;fill-rule:nonzero;stroke:none"
             id="path456" /></g><g
           id="g458"
           transform="translate(107.0098,190.2197)"><path
             d="m 0,0 c 0,0 8.618,-1.222 14.32,-8.6 l -5.279,-5.055 c 0,0 -8.735,3.069 -8.735,5.342 C 0.306,-7.436 0,0 0,0"
             style="fill:#605575;fill-opacity:1;fill-rule:nonzero;stroke:none"
             id="path460" /></g><g
           id="g462"
           transform="translate(109.3452,196.8232)"><path
             d="M 0,0 C 0.2,0.352 0.54,1.632 2.606,0.865 4.672,0.099 4.813,3.2 5.234,2.898 5.656,2.596 5.762,1.004 4.873,0.316 3.983,-0.371 0.753,-0.47 1.079,-2.174 1.404,-3.879 17.222,-14.789 15.888,-17.805 14.553,-20.82 11.401,-21.321 8.725,-19.251 6.049,-17.181 -2.679,-4.714 0,0"
             style="fill:#e57373;fill-opacity:1;fill-rule:nonzero;stroke:none"
             id="path464" /></g><g
           id="g466"
           transform="translate(100.6152,202.6631)"><path
             d="M 0,0 C 0,0 -0.098,2.855 -1.428,2.585 -2.757,2.313 -3.717,-0.492 -3.003,-1.526 -2.29,-2.561 0.025,-2.389 0,0"
             style="fill:#e57373;fill-opacity:1;fill-rule:nonzero;stroke:none"
             id="path468" /></g><g
           id="g470"
           transform="translate(137.7588,125.2295)"><path
             d="m 0,0 0.57,-4.73 c 0.774,0 9.027,0.515 9.113,1.031 0.086,0.516 -6.362,1.333 -6.362,1.333 0,0 0.03,2.006 -0.086,2.278 C 3.128,0.162 0,0 0,0"
             style="fill:#383a45;fill-opacity:1;fill-rule:nonzero;stroke:none"
             id="path472" /></g><g
           id="g474"
           transform="translate(125.2876,117.1787)"><path
             d="m 0,0 -1.249,-4.598 c 0.717,-0.291 8.56,-2.913 8.833,-2.467 0.273,0.445 -5.395,3.625 -5.395,3.625 0,0 0.781,1.846 0.776,2.143 C 2.96,-1.025 0,0 0,0"
             style="fill:#383a45;fill-opacity:1;fill-rule:nonzero;stroke:none"
             id="path476" /></g><g
           id="g478"
           transform="translate(101.6055,190.7217)"><path
             d="m 0,0 c 0,0 -6.091,0.381 -9.137,-1.903 -3.045,-2.284 -2.093,-46.259 -2.093,-46.259 l 19.605,4.568 c 0,0 1.332,40.548 -1.142,42.262 C 4.758,0.381 0,0 0,0"
             style="fill:#605575;fill-opacity:1;fill-rule:nonzero;stroke:none"
             id="path480" /></g><g
           id="g482"
           transform="translate(90.375,148.4658)"><path
             d="m 0,0 c 0,0 32.168,26.076 43.018,14.656 10.849,-11.421 7.994,-39.592 7.994,-39.592 h -4.568 c 0,0 -1.714,31.978 -9.137,33.692 -7.423,1.713 -15.174,-7.487 -15.174,-7.487 0,0 11.367,2.347 17.649,-3.553 4.385,-4.12 -1.333,-31.787 -1.333,-31.787 h -4.568 c 0,0 3.627,28.35 -2.755,28.165 -6.381,-0.185 -31.126,0 -31.126,0 z"
             style="fill:#f05757;fill-opacity:1;fill-rule:nonzero;stroke:none"
             id="path484" /></g><g
           id="g486"
           transform="translate(73.4346,147.3926)"><path
             d="M 0,0 61.878,45.374 79.944,50.441 67.762,36.165 4.949,-9.517 Z"
             style="fill:#f9b57c;fill-opacity:1;fill-rule:nonzero;stroke:none"
             id="path488" /></g><g
           id="g490"
           transform="translate(135.3125,192.7666)"><path
             d="m 0,0 -2.431,-4.822 4.877,-0.356 -0.761,-3.737 4.199,-0.294 -62.75,-46.512 -5.012,10.347 z"
             style="fill:#e59d35;fill-opacity:1;fill-rule:nonzero;stroke:none"
             id="path492" /></g><g
           id="g494"
           transform="translate(143.4116,195.0381)"><path
             d="M 0,0 3.558,-4.715 9.967,2.796 Z"
             style="fill:#383a45;fill-opacity:1;fill-rule:nonzero;stroke:none"
             id="path496" /></g><g
           id="g498"
           transform="translate(85.5781,173.0517)"><path
             d="m 0,0 c 0,0 -1.367,-15.633 2.253,-15.765 3.62,-0.131 16.035,6.639 17.254,6.867 2.019,0.377 4.09,-1.124 4.304,-0.947 0.215,0.178 -0.254,2.808 -4.59,3.452 -3.57,0.53 -12.95,-3.279 -13.662,-1.753 -0.712,1.527 2.235,23.913 2.235,23.913 0,0 -8.047,-2.654 -7.794,-15.767"
             style="fill:#e57373;fill-opacity:1;fill-rule:nonzero;stroke:none"
             id="path500" /></g><g
           id="g502"
           transform="translate(83.4292,175.3086)"><path
             d="M 0,0 C 0,0 7.653,-3.445 8.721,-2.257 9.789,-1.067 13.354,15.13 13.354,15.13 13.354,15.13 3.21,15.015 0,0"
             style="fill:#605575;fill-opacity:1;fill-rule:nonzero;stroke:none"
             id="path504" /></g><g
           id="g506"
           transform="translate(108.8403,209.2451)"><path
             d="m 0,0 c 0,0 3.374,-11.176 -1.385,-12.508 -4.759,-1.332 -3.891,3.71 -3.701,2.758 0.19,-0.952 1.402,-8.795 1.402,-8.795 0,0 -2.41,-3.071 -6.953,-0.412 -0.724,0.424 1.935,12.664 2.486,18.88 C -7.911,2.638 -1.714,3.201 0,0"
             style="fill:#e57373;fill-opacity:1;fill-rule:nonzero;stroke:none"
             id="path508" /></g><g
           id="g510"
           transform="translate(84.9287,198.7451)"><path
             d="m 0,0 c 2.75,4.412 7.556,2.343 7.661,6.521 0.105,4.178 4.842,10.5 13.341,8.063 4.07,-1.167 3.91,-3.815 0.13,-3.726 -3.78,0.089 -3.909,-2.845 -4.224,-4.337 -0.315,-1.493 -1.289,-3.159 -1.55,-2.366 -0.993,3.012 -2.208,1.466 -2.208,1.466 0,0 -1.447,-2.365 0,-3.054 1.448,-0.688 2.023,0.136 2.208,-0.853 0.184,-0.99 1.234,-6.956 -2.908,-7.13 C 8.307,-5.591 9.722,-8.097 5.177,-9.041 0.633,-9.986 -2.503,-4.015 0,0"
             style="fill:#383a45;fill-opacity:1;fill-rule:nonzero;stroke:none"
             id="path512" /></g><g
           id="g514"
           transform="translate(359.4375,319.9702)"><path
             d="m 0,0 0.482,-4.74 c 0.774,-0.014 9.036,0.349 9.131,0.863 0.096,0.514 -6.336,1.45 -6.336,1.45 0,0 0.067,2.005 -0.044,2.279 C 3.131,0.104 0,0 0,0"
             style="fill:#383a45;fill-opacity:1;fill-rule:nonzero;stroke:none"
             id="path516" /></g><g
           id="g518"
           transform="translate(342.6133,280.5923)"><path
             d="M 0,0 -0.964,-4.667 C -0.23,-4.912 7.759,-7.048 8.004,-6.586 8.25,-6.125 2.396,-3.3 2.396,-3.3 c 0,0 0.667,1.892 0.643,2.188 C 3.018,-0.841 0,0 0,0"
             style="fill:#383a45;fill-opacity:1;fill-rule:nonzero;stroke:none"
             id="path520" /></g><g
           id="g522"
           transform="translate(327.8721,339.2192)"><path
             d="m 0,0 c 0,0 12.293,23.917 26.418,22.25 14.125,-1.667 9.954,-41.899 9.954,-41.899 h -5.536 c 0,0 -1.201,29.522 -6.025,29.452 C 19.986,9.734 3.842,-12.843 3.842,-12.843 c 0,0 21.034,1.787 23.853,-12.541 3.426,-17.417 -8.565,-35.404 -8.565,-35.404 l -6.783,0.259 c 0,0 12.928,30.408 5.64,34.859 -11.219,6.852 -32.834,-5.455 -41.399,10.691 z"
             style="fill:#3c81cc;fill-opacity:1;fill-rule:nonzero;stroke:none"
             id="path524" /></g><g
           id="g526"
           transform="translate(312.1201,371.1445)"><path
             d="m 0,0 c 0,0 15.321,-5.727 23.152,-2.451 7.832,3.276 16.661,19.49 21.658,19.68 4.996,0.189 5.19,1.973 5.19,1.973 0,0 -0.389,-4.468 -3.64,-4.643 C 43.109,14.382 39.235,-4.211 26.721,-9.182 14.206,-14.153 1.169,-10.154 1.169,-10.154 1.169,-10.154 -1.745,-2.073 0,0"
             style="fill:#e57373;fill-opacity:1;fill-rule:nonzero;stroke:none"
             id="path528" /></g><g
           id="g530"
           transform="translate(318.917,371.7993)"><path
             d="m 0,0 c 0,0 -26.494,9.725 -14.457,-47.559 0,0 27.515,8.787 23.412,14.979 -2.855,4.309 -3.95,1.417 -4.52,8.377 C 3.863,-17.243 19.531,-16.387 0,0"
             style="fill:#605575;fill-opacity:1;fill-rule:nonzero;stroke:none"
             id="path532" /></g><g
           id="g534"
           transform="translate(307.4707,393.9756)"><path
             d="m 0,0 c 0.132,0.379 4.704,7.312 12.036,2.77 3.094,-1.917 3.138,-5.556 6.943,-6.499 3.806,-0.943 9.342,2.718 11.31,-3.583 1.969,-6.301 -0.279,-8.016 3.132,-8.723 3.412,-0.707 6.003,-0.283 5.173,-5.132 -1.195,-6.971 -11.873,-7.174 -13.181,-3.213 -3.309,10.016 -8.951,-1.839 -11.81,7.072 C 12.155,-12.798 -6.869,-19.712 0,0"
             style="fill:#383a45;fill-opacity:1;fill-rule:nonzero;stroke:none"
             id="path536" /></g><g
           id="g538"
           transform="translate(316.5039,384.1738)"><path
             d="M 0,0 C 0,0 1.428,2.585 2.758,2.314 4.087,2.043 3.718,-0.493 3.004,-1.526 2.29,-2.561 -0.024,-2.388 0,0"
             style="fill:#e57373;fill-opacity:1;fill-rule:nonzero;stroke:none"
             id="path540" /></g><g
           id="g542"
           transform="translate(306.8652,388.3286)"><path
             d="m 0,0 c 0,0 -1.96,-8.748 2.799,-10.081 4.759,-1.332 3.891,3.71 3.701,2.758 -0.19,-0.951 -1.402,-8.794 -1.402,-8.794 0,0 2.41,-3.072 6.954,-0.412 C 12.774,-16.106 10.116,-3.865 9.565,2.35 9.324,5.064 1.63,5.583 0,0"
             style="fill:#e57373;fill-opacity:1;fill-rule:nonzero;stroke:none"
             id="path544" /></g><g
           id="g546"
           transform="translate(314.9531,361.5483)"><path
             d="m 0,0 c 0,0 14.565,-7.441 22.72,-5.082 8.155,2.359 18.779,17.457 23.764,17.075 4.986,-0.383 5.382,1.367 5.382,1.367 0,0 -0.896,-4.394 -4.146,-4.197 C 44.47,9.36 38.496,-8.669 25.495,-12.177 12.494,-15.684 0,-10.222 0,-10.222 0,-10.222 -1.971,-1.86 0,0"
             style="fill:#e57373;fill-opacity:1;fill-rule:nonzero;stroke:none"
             id="path548" /></g><g
           id="g550"
           transform="translate(318.917,371.7993)"><path
             d="m 0,0 c 0,0 6.697,-3.936 7.729,-4.005 1.03,-0.069 0,-6.966 0,-6.966 0,0 -9.335,4.631 -7.729,10.971"
             style="fill:#605575;fill-opacity:1;fill-rule:nonzero;stroke:none"
             id="path552" /></g><g
           id="g554"
           transform="translate(312.9531,364.1621)"><path
             d="M 0,0 C 0,0 8.866,-3.442 9.443,-4.692 10.021,-5.943 8.455,-16.493 6.087,-15.83 3.72,-15.167 -4.28,-13.833 -4.446,-8.667 -4.613,-3.5 -2.965,1.21 0,0"
             style="fill:#605575;fill-opacity:1;fill-rule:nonzero;stroke:none"
             id="path556" /></g><g
           id="g558"
           transform="translate(384.5469,394.8511)"><path
             d="m 0,0 c 0,-12.386 -10.041,-22.427 -22.427,-22.427 -12.386,0 -22.427,10.041 -22.427,22.427 0,12.386 10.041,22.427 22.427,22.427 C -10.041,22.427 0,12.386 0,0"
             style="fill:#f05757;fill-opacity:1;fill-rule:nonzero;stroke:none"
             id="path560" /></g><g
           id="g562"
           transform="translate(355.2246,394.8628)"><path
             d="M 0,0 C 0.012,-0.332 0.016,-0.666 0.019,-1 H 6.395 V 0 Z"
             style="fill:#fffaef;fill-opacity:1;fill-rule:nonzero;stroke:none"
             id="path564" /></g><g
           id="g566"
           transform="translate(362.6191,394.8628)"><path
             d="m 0,0 v -1 h 6.378 c 0.003,0.334 0.006,0.668 0.018,1 z"
             style="fill:#fffaef;fill-opacity:1;fill-rule:nonzero;stroke:none"
             id="path568" /></g><g
           id="g570"
           transform="translate(384.5225,393.8628)"><path
             d="M 0,0 C 0.014,0.328 0.024,0.657 0.024,0.988 V 1 h -14.53 c -0.012,-0.332 -0.017,-0.666 -0.019,-1 z"
             style="fill:#fffaef;fill-opacity:1;fill-rule:nonzero;stroke:none"
             id="path572" /></g><g
           id="g574"
           transform="translate(339.6924,394.8628)"><path
             d="M 0,0 V -0.012 C 0,-0.343 0.011,-0.672 0.025,-1 h 14.526 c -0.003,0.334 -0.008,0.668 -0.021,1 z"
             style="fill:#fffaef;fill-opacity:1;fill-rule:nonzero;stroke:none"
             id="path576" /></g><g
           id="g578"
           transform="translate(362.6191,417.2656)"><path
             d="M 0,0 C -0.166,0.004 -0.332,0.013 -0.499,0.013 -0.667,0.013 -0.833,0.004 -1,0 v -22.403 -1 -21.426 c 0.167,-0.004 0.333,-0.013 0.501,-0.013 0.167,0 0.333,0.009 0.499,0.013 v 21.426 1 z"
             style="fill:#fffaef;fill-opacity:1;fill-rule:nonzero;stroke:none"
             id="path580" /></g><g
           id="g582"
           transform="translate(369.9922,393.6055)"><path
             d="m 0,0 c 0,0.086 0.004,0.171 0.005,0.257 0.002,0.335 0.008,0.669 0.019,1 0.262,7.063 2.708,13.295 6.374,17.29 -0.252,0.208 -0.51,0.41 -0.771,0.607 C 1.819,14.97 -0.714,8.536 -0.977,1.257 -0.989,0.926 -0.992,0.592 -0.995,0.257 -0.996,0.171 -1,0.086 -1,0 c 0,-6.917 2.051,-13.16 5.326,-17.57 0.275,0.179 0.545,0.363 0.812,0.553 C 1.981,-12.78 0,-6.721 0,0"
             style="fill:#fffaef;fill-opacity:1;fill-rule:nonzero;stroke:none"
             id="path584" /></g><g
           id="g586"
           transform="translate(348.6211,412.7598)"><path
             d="m 0,0 c -0.262,-0.197 -0.52,-0.398 -0.772,-0.607 3.666,-3.995 6.113,-10.227 6.374,-17.29 0.012,-0.332 0.017,-0.665 0.02,-1 0,-0.086 0.004,-0.171 0.004,-0.257 0,-6.721 -1.98,-12.781 -5.137,-17.017 0.266,-0.19 0.536,-0.375 0.812,-0.553 3.275,4.41 5.325,10.653 5.325,17.57 0,0.086 -0.004,0.171 -0.004,0.257 -0.003,0.335 -0.007,0.668 -0.018,1 C 6.341,-10.618 3.808,-4.184 0,0"
             style="fill:#fffaef;fill-opacity:1;fill-rule:nonzero;stroke:none"
             id="path588" /></g><g
           id="g590"
           transform="translate(147.2744,467.0776)"><path
             d="m 0,0 c -0.745,-0.132 -1.246,-0.85 -1.113,-1.594 l 0.611,-3.447 c 0.132,-0.744 0.85,-1.245 1.594,-1.113 0.745,0.133 1.246,0.85 1.114,1.594 L 1.594,-1.114 C 1.462,-0.369 0.745,0.132 0,0"
             style="fill:#e59d35;fill-opacity:1;fill-rule:nonzero;stroke:none"
             id="path592" /></g><g
           id="g594"
           transform="translate(157.6201,467.7354)"><path
             d="m 0,0 c -0.748,0.11 -1.45,-0.412 -1.561,-1.16 l -0.511,-3.462 c -0.11,-0.748 0.412,-1.451 1.16,-1.561 0.748,-0.11 1.451,0.411 1.561,1.159 L 1.16,-1.561 C 1.27,-0.813 0.749,-0.111 0,0"
             style="fill:#e59d35;fill-opacity:1;fill-rule:nonzero;stroke:none"
             id="path596" /></g><g
           id="g598"
           transform="translate(167.9468,465.8008)"><path
             d="m 0,0 c -0.635,0.41 -1.491,0.226 -1.901,-0.41 l -1.897,-2.941 c -0.41,-0.635 -0.225,-1.491 0.41,-1.901 0.636,-0.41 1.491,-0.225 1.901,0.41 L 0.41,-1.901 C 0.82,-1.265 0.636,-0.41 0,0"
             style="fill:#e59d35;fill-opacity:1;fill-rule:nonzero;stroke:none"
             id="path600" /></g><g
           id="g602"
           transform="translate(174.9912,460.2339)"><path
             d="m 0,0 c -0.563,0.504 -1.437,0.455 -1.941,-0.109 l -2.332,-2.61 c -0.504,-0.564 -0.455,-1.438 0.109,-1.942 0.564,-0.504 1.437,-0.454 1.941,0.109 l 2.332,2.61 C 0.613,-1.378 0.564,-0.504 0,0"
             style="fill:#e59d35;fill-opacity:1;fill-rule:nonzero;stroke:none"
             id="path604" /></g><g
           id="g606"
           transform="translate(181.7148,452.0635)"><path
             d="m 0,0 c -0.299,0.694 -1.112,1.019 -1.806,0.72 l -3.215,-1.383 c -0.695,-0.298 -1.02,-1.111 -0.721,-1.806 0.299,-0.695 1.112,-1.019 1.806,-0.72 l 3.216,1.382 C -0.025,-1.508 0.299,-0.695 0,0"
             style="fill:#e59d35;fill-opacity:1;fill-rule:nonzero;stroke:none"
             id="path608" /></g><g
           id="g610"
           transform="translate(186.2788,444.4194)"><path
             d="M 0,0 C -0.096,0.75 -0.788,1.286 -1.538,1.19 L -5.01,0.747 c -0.75,-0.096 -1.286,-0.788 -1.19,-1.538 0.096,-0.75 0.788,-1.286 1.538,-1.19 l 3.472,0.443 C -0.44,-1.442 0.096,-0.75 0,0"
             style="fill:#e59d35;fill-opacity:1;fill-rule:nonzero;stroke:none"
             id="path612" /></g><g
           id="g614"
           transform="translate(187.8325,435.4668)"><path
             d="M 0,0 C -0.014,0.756 -0.645,1.363 -1.4,1.349 L -4.9,1.284 C -5.656,1.27 -6.263,0.64 -6.249,-0.117 c 0.014,-0.756 0.645,-1.363 1.4,-1.349 l 3.5,0.066 C -0.593,-1.386 0.014,-0.756 0,0"
             style="fill:#e59d35;fill-opacity:1;fill-rule:nonzero;stroke:none"
             id="path616" /></g><g
           id="g618"
           transform="translate(187.2612,426.9297)"><path
             d="M 0,0 C 0.176,0.735 -0.281,1.481 -1.016,1.658 L -4.419,2.475 C -5.155,2.651 -5.901,2.194 -6.077,1.458 -6.254,0.723 -5.796,-0.023 -5.061,-0.199 l 3.403,-0.817 C -0.922,-1.192 -0.176,-0.735 0,0"
             style="fill:#e59d35;fill-opacity:1;fill-rule:nonzero;stroke:none"
             id="path620" /></g><g
           id="g622"
           transform="translate(185.1938,418.2905)"><path
             d="M 0,0 C 0.368,0.661 0.128,1.502 -0.532,1.871 L -3.59,3.573 C -4.25,3.941 -5.092,3.702 -5.46,3.041 -5.828,2.38 -5.589,1.539 -4.928,1.171 l 3.057,-1.703 C -1.21,-0.9 -0.368,-0.661 0,0"
             style="fill:#e59d35;fill-opacity:1;fill-rule:nonzero;stroke:none"
             id="path624" /></g><g
           id="g626"
           transform="translate(179.5117,412.3794)"><path
             d="M 0,0 C 0.623,0.429 0.782,1.289 0.354,1.912 L -1.63,4.796 C -2.059,5.419 -2.919,5.578 -3.542,5.149 -4.165,4.721 -4.324,3.86 -3.896,3.237 L -1.912,0.354 C -1.484,-0.27 -0.623,-0.428 0,0"
             style="fill:#e59d35;fill-opacity:1;fill-rule:nonzero;stroke:none"
             id="path628" /></g><g
           id="g630"
           transform="translate(138.5112,464.3433)"><path
             d="M 0,0 C 0.665,0.361 1.504,0.113 1.865,-0.552 L 3.537,-3.626 C 3.897,-4.291 3.649,-5.13 2.985,-5.491 2.321,-5.853 1.481,-5.604 1.12,-4.94 l -1.671,3.075 C -0.912,-1.201 -0.664,-0.361 0,0"
             style="fill:#e59d35;fill-opacity:1;fill-rule:nonzero;stroke:none"
             id="path632" /></g><g
           id="g634"
           transform="translate(129.4814,458.9727)"><path
             d="M 0,0 C 0.456,0.604 1.322,0.725 1.926,0.27 L 4.72,-1.839 C 5.323,-2.294 5.444,-3.161 4.989,-3.765 4.533,-4.368 3.667,-4.49 3.063,-4.034 L 0.27,-1.926 C -0.334,-1.47 -0.456,-0.604 0,0"
             style="fill:#e59d35;fill-opacity:1;fill-rule:nonzero;stroke:none"
             id="path636" /></g><g
           id="g638"
           transform="translate(124.7837,451.3213)"><path
             d="M 0,0 C 0.356,0.667 1.193,0.922 1.86,0.566 L 4.948,-1.082 C 5.615,-1.438 5.87,-2.275 5.514,-2.942 5.158,-3.61 4.321,-3.864 3.653,-3.508 L 0.565,-1.86 C -0.102,-1.504 -0.356,-0.667 0,0"
             style="fill:#e59d35;fill-opacity:1;fill-rule:nonzero;stroke:none"
             id="path640" /></g><g
           id="g642"
           transform="translate(121.2827,441.3359)"><path
             d="M 0,0 C 0.042,0.755 0.693,1.339 1.448,1.298 L 4.943,1.106 C 5.698,1.065 6.282,0.413 6.241,-0.342 6.2,-1.097 5.548,-1.681 4.793,-1.64 L 1.298,-1.448 C 0.543,-1.407 -0.041,-0.755 0,0"
             style="fill:#e59d35;fill-opacity:1;fill-rule:nonzero;stroke:none"
             id="path644" /></g><g
           id="g646"
           transform="translate(119.6289,432.5884)"><path
             d="m 0,0 c -0.168,0.737 0.297,1.478 1.034,1.646 l 3.413,0.78 C 5.184,2.594 5.925,2.128 6.093,1.391 6.261,0.654 5.796,-0.087 5.059,-0.255 L 1.646,-1.035 C 0.909,-1.203 0.168,-0.737 0,0"
             style="fill:#e59d35;fill-opacity:1;fill-rule:nonzero;stroke:none"
             id="path648" /></g><g
           id="g650"
           transform="translate(121.251,423.6479)"><path
             d="M 0,0 C -0.247,0.715 0.136,1.502 0.851,1.749 L 4.159,2.892 C 4.874,3.139 5.661,2.756 5.907,2.041 6.154,1.327 5.771,0.54 5.057,0.292 L 1.749,-0.851 C 1.034,-1.098 0.247,-0.715 0,0"
             style="fill:#e59d35;fill-opacity:1;fill-rule:nonzero;stroke:none"
             id="path652" /></g><g
           id="g654"
           transform="translate(124.7256,415.8291)"><path
             d="M 0,0 C -0.418,0.629 -0.246,1.487 0.384,1.906 L 3.298,3.845 C 3.928,4.263 4.786,4.091 5.204,3.461 5.623,2.832 5.451,1.974 4.821,1.555 L 1.907,-0.384 C 1.277,-0.802 0.419,-0.63 0,0"
             style="fill:#e59d35;fill-opacity:1;fill-rule:nonzero;stroke:none"
             id="path656" /></g><g
           id="g658"
           transform="translate(129.6401,408.4292)"><path
             d="M 0,0 C -0.573,0.494 -0.638,1.366 -0.144,1.939 L 2.141,4.591 C 2.635,5.164 3.507,5.229 4.08,4.735 4.653,4.241 4.718,3.368 4.224,2.795 L 1.939,0.144 C 1.446,-0.429 0.573,-0.494 0,0"
             style="fill:#e59d35;fill-opacity:1;fill-rule:nonzero;stroke:none"
             id="path660" /></g><g
           id="g662"
           transform="translate(137.0098,404.835)"><path
             d="m 0,0 c -0.732,0.188 -1.178,0.941 -0.99,1.674 l 0.87,3.39 C 0.068,5.796 0.821,6.242 1.553,6.054 2.286,5.866 2.731,5.113 2.543,4.38 L 1.674,0.99 C 1.486,0.258 0.732,-0.188 0,0"
             style="fill:#e59d35;fill-opacity:1;fill-rule:nonzero;stroke:none"
             id="path664" /></g><g
           id="g666"
           transform="translate(281.9014,156.9014)"><path
             d="m 0,0 -0.038,-4.765 c -0.77,-0.086 -9.028,-0.494 -9.171,0.009 -0.144,0.503 6.173,2.034 6.173,2.034 0,0 -0.254,1.99 -0.169,2.274 C -3.127,-0.187 0,0 0,0"
             style="fill:#383a45;fill-opacity:1;fill-rule:nonzero;stroke:none"
             id="path668" /></g><g
           id="g670"
           transform="translate(293.667,156.8916)"><path
             d="m 0,0 -0.189,-4.761 c -0.772,-0.062 -9.04,-0.209 -9.166,0.298 -0.127,0.508 6.234,1.838 6.234,1.838 0,0 -0.191,1.997 -0.097,2.278 C -3.132,-0.089 0,0 0,0"
             style="fill:#383a45;fill-opacity:1;fill-rule:nonzero;stroke:none"
             id="path672" /></g><g
           id="g674"
           transform="translate(299.2842,215.6142)"><path
             d="m 0,0 c 0,0 5.896,42.291 0.008,48.297 -9.21,9.395 -25.287,2.36 -25.937,1.283 -2.64,-4.377 -2.883,-48.5 -2.883,-48.5 z"
             style="fill:#3c81cc;fill-opacity:1;fill-rule:nonzero;stroke:none"
             id="path676" /></g><g
           id="g678"
           transform="translate(270.4727,216.6943)"><path
             d="m 0,0 c 0,0 -13.769,-17.689 -11.484,-26.602 2.284,-8.912 17.995,-34.4 17.995,-34.4 h 6.667 c 0,0 -14.257,31.525 -13.178,34.788 1.078,3.263 14.409,16.402 14.409,16.402 0,0 0.773,-34.994 4.857,-51.19 h 4.653 c 0,0 4.944,39.119 4.9,61.729 z"
             style="fill:#383a45;fill-opacity:1;fill-rule:nonzero;stroke:none"
             id="path680" /></g><g
           id="g682"
           transform="translate(293.6641,267.561)"><path
             d="m 0,0 -0.884,-77.142 h 7.568 c 0,0 2.596,68.856 1.559,72.63 C 7.205,-0.738 0,0 0,0"
             style="fill:#ffffff;fill-opacity:1;fill-rule:nonzero;stroke:none"
             id="path684" /></g><g
           id="g686"
           transform="translate(259.6494,199.8056)"><path
             d="m 0,0 4.452,-3.39 c 0,0 13.247,18.801 12.882,21.005 -0.365,2.203 1.797,50.14 1.797,50.14 0,0 -4.805,-0.211 -5.773,-3.864 C 10.476,53.003 10.823,19.297 10.823,19.297 10.823,19.297 3.894,8.351 0,0"
             style="fill:#ffffff;fill-opacity:1;fill-rule:nonzero;stroke:none"
             id="path688" /></g><g
           id="g690"
           transform="translate(287.2012,281.0195)"><path
             d="M 0,0 C 0,0 0.099,2.856 1.429,2.585 2.758,2.314 3.718,-0.492 3.004,-1.526 2.29,-2.561 -0.024,-2.388 0,0"
             style="fill:#e57373;fill-opacity:1;fill-rule:nonzero;stroke:none"
             id="path692" /></g><g
           id="g694"
           transform="translate(278.3525,284.3232)"><path
             d="m 0,0 c 0,0 -2.749,-7.897 2.009,-9.229 4.759,-1.333 3.891,3.709 3.701,2.757 -0.19,-0.951 -1.086,-10.07 -1.086,-10.07 0,0 2.094,-1.796 6.638,0.864 0,0 -1.936,12.664 -2.487,18.879 C 8.534,5.916 1.715,3.201 0,0"
             style="fill:#e57373;fill-opacity:1;fill-rule:nonzero;stroke:none"
             id="path696" /></g><g
           id="g698"
           transform="translate(286.665,289.9634)"><path
             d="m 0,0 c 0,0 -1.073,3.698 -3.354,2.833 -2.283,-0.866 -1.967,-2.125 -3.62,-1.417 -1.652,0.708 -3.344,-1.888 -2.468,-3.54 1.146,-2.166 1.13,-2.833 4.278,-2.125 3.146,0.708 4.799,1.81 5.507,0.551 0.708,-1.259 -0.551,-4.484 0.393,-4.878 0.945,-0.393 0.866,2.125 1.574,1.18 0.708,-0.943 1.809,-3.355 -0.079,-3.054 -1.888,0.301 -0.493,-2.218 0.226,-2.139 0.718,0.08 4.002,2.769 3.629,6.374 C 5.851,-3.934 3.454,-5.114 4.119,-3.461 4.785,-1.81 3.276,1.731 0,0"
             style="fill:#383a45;fill-opacity:1;fill-rule:nonzero;stroke:none"
             id="path700" /></g><g
           id="g702"
           transform="translate(302.1514,215.6142)"><path
             d="M 0,0 C 0,0 -4.109,2.923 1.271,8.673 5.776,13.485 16.811,25.344 13.002,29.677 9.192,34.011 0,37.381 0,37.381 l -1.889,12.288 c 0,0 20.285,-7.871 24.41,-19.121 C 26.419,19.92 4.128,7.224 2.253,5.628 -0.265,3.485 0,0 0,0"
             style="fill:#e57373;fill-opacity:1;fill-rule:nonzero;stroke:none"
             id="path704" /></g><g
           id="g706"
           transform="translate(273.3555,265.1943)"><path
             d="m 0,0 c 0,0 -21.433,-6.778 -22.433,-21.782 -1,-15.004 19.617,-20.596 18.292,-23.125 -1.081,-2.067 -4.542,-2.744 -3.542,-2.599 1,0.146 6.483,-1.969 4.867,5.128 -1.617,7.096 -17.033,12.346 -10.117,21.6 3.696,4.943 11.155,7.584 11.155,7.584 0,0 0.797,9.923 1.778,13.194"
             style="fill:#e57373;fill-opacity:1;fill-rule:nonzero;stroke:none"
             id="path708" /></g><g
           id="g710"
           transform="translate(301.0068,252)"><path
             d="m 0,0 9.916,-3.588 c 0,0 6.06,7.331 5.665,7.642 C 15.187,4.366 5.302,12.964 -5.266,15.188 -5.266,15.188 -2.5,2.125 0,0"
             style="fill:#ffffff;fill-opacity:1;fill-rule:nonzero;stroke:none"
             id="path712" /></g><g
           id="g714"
           transform="translate(274.6729,252)"><path
             d="m 0,0 c 0,0 -7.333,-2.171 -10.666,-5.338 0,0 -7.739,8.133 -7.548,8.334 0.192,0.2 7.089,8.077 20.349,12.192 z"
             style="fill:#ffffff;fill-opacity:1;fill-rule:nonzero;stroke:none"
             id="path716" /></g><g
           id="g718"
           transform="translate(277.2217,277.9482)"><path
             d="m 0,0 c 0,0 1.485,1.23 3.235,0 1.75,-1.229 6.597,0.417 6.404,3.896 l 1.427,0.817 c 0,0 -1.206,-8.817 -6.081,-9.442 C 0.11,-5.354 -0.751,-0.397 0,0"
             style="fill:#383a45;fill-opacity:1;fill-rule:nonzero;stroke:none"
             id="path720" /></g></g></g></g></svg>
